# xmcd CD database file
#
# Track frame offsets:
#	182
#	13127
#	33750
#	44552
#	58010
#	73425
#	84107
#	98647
#	109705
#	122862
#
# Disc length: 1818 seconds
#
# Revision: 0
# Processed by: cddbd v1.5.1PL0 Copyright (c) Steve Scherf et al.
# Submitted via: CDex 1.51
#
DISCID=8207180a
DTITLE=Duke Ellington - The Music from the Broadway Hit
DYEAR=1962
DGENRE=Jazz
TTITLE0=Back to school
TTITLE1=I've just seen her (as nobody else has seen her)
TTITLE2=Which way ?
TTITLE3=If I were you
TTITLE4=Once upon a time
TTITLE5=Nightlife
TTITLE6=Our children
TTITLE7=I couldn't have done it alone
TTITLE8=We speak the same language
TTITLE9=What a country !
EXTD=YEAR: 1962
EXTT0=
EXTT1=
EXTT2=
EXTT3=
EXTT4=
EXTT5=
EXTT6=
EXTT7=
EXTT8=
EXTT9=
PLAYORDER=
